#!OML:ASF G:\JayActor3\Patient Classification 1\Patient 1\Session 5\male.ASF
:FULLY-SPECIFIED
:DEGREES
838
root -33.7884 17.0179 -7.8291 446.935 -85.0771 -451.689
lowerback 0.304279 -0.984745 5.61051
upperback 1.62139 -1.38574 1.01086
thorax 1.39278 -0.639488 -2.11428
lowerneck -6.15778 -0.126643 2.49616
upperneck 4.39169 -0.464015 1.19717
head 2.44929 -0.154328 -0.066794
rclavicle 6.73694e-015 -2.28602e-015
rhumerus -32.9758 -5.60937 -85.6539
rradius 28.324
rwrist 0.813559
rhand -19.4307 -7.83223
rfingers 7.12502
rthumb 6.8894 -37.7001
lclavicle 6.73694e-015 -2.28602e-015
lhumerus -35.0327 7.02224 83.5259
lradius 26.5349
lwrist 16.7047
lhand -16.498 13.333
lfingers 7.12502
lthumb 9.71969 43.0888
rfemur -7.79206 4.93015 32.0689
rtibia 29.6699
rfoot -17.5129 -9.79193
rtoes 10.2477
lfemur -11.7943 4.27256 -11.0353
ltibia 67.3627
lfoot -2.91219 1.5078
ltoes -11.2651
839
root -33.9095 17.0067 -7.83849 447.952 -84.9826 -452.741
lowerback 0.390359 -0.922095 5.72031
upperback 1.63726 -1.29801 1.0098
thorax 1.36561 -0.594991 -2.17477
lowerneck -6.09103 -0.146959 2.55261
upperneck 4.40179 -0.492433 1.16882
head 2.43998 -0.168575 -0.0865204
rclavicle 6.29355e-015 -2.13694e-015
rhumerus -32.7928 -5.28442 -85.8161
rradius 28.7043
rwrist 0.487638
rhand -19.4776 -7.8544
rfingers 7.12502
rthumb 6.84417 -37.7238
lclavicle 6.29355e-015 -2.13694e-015
lhumerus -35.0285 6.76537 83.6504
lradius 26.97
lwrist 16.9522
lhand -16.4548 13.3254
lfingers 7.12502
lthumb 9.76134 43.0792
rfemur -7.34042 4.89908 32.2737
rtibia 29.7695
rfoot -17.825 -9.78187
rtoes 10.0005
lfemur -13.0235 3.98082 -11.1328
ltibia 67.44
lfoot -4.12298 2.15315
ltoes -11.8125
840
root -34.0296 16.9939 -7.84714 448.914 -84.9036 -453.724
lowerback 0.464901 -0.865184 5.81739
upperback 1.65156 -1.21823 1.00272
thorax 1.34309 -0.554427 -2.23473
lowerneck -6.07705 -0.156632 2.55028
upperneck 4.46696 -0.508006 1.19841
head 2.45912 -0.174755 -0.0773498
rclavicle 2.23741e-014 -2.85256e-014
rhumerus -32.6058 -4.97088 -85.9759
rradius 29.088
rwrist 0.174837
rhand -19.5136 -7.89239
rfingers 7.12502
rthumb 6.80936 -37.7629
lclavicle 2.23741e-014 -2.85256e-014
lhumerus -35.0173 6.51996 83.768
lradius 27.3956
lwrist 17.1741
lhand -16.4276 13.3325
lfingers 7.12502
lthumb 9.78761 43.085
rfemur -6.92274 4.86994 32.4577
rtibia 29.9052
rfoot -18.1558 -9.77023
rtoes 9.75314
lfemur -14.2362 3.69109 -11.2523
ltibia 67.4094
lfoot -5.25733 2.85063
ltoes -12.2019
841
root -34.1487 16.98 -7.85493 449.796 -84.8428 -454.612
lowerback 0.525902 -0.81376 5.90049
upperback 1.66567 -1.14632 0.989178
thorax 1.32771 -0.517668 -2.29394
lowerneck -6.06994 -0.16534 2.53808
upperneck 4.53743 -0.522154 1.23343
head 2.48136 -0.180123 -0.0647118
rclavicle -7.02424e-015 -2.08724e-015
rhumerus -32.4113 -4.66582 -86.1324
rradius 29.469
rwrist -0.13058
rhand -19.543 -7.924
rfingers 7.12502
rthumb 6.78103 -37.7954
lclavicle -7.02424e-015 -2.08724e-015
lhumerus -35.0008 6.28856 83.8791
lradius 27.8162
lwrist 17.3757
lhand -16.4056 13.387
lfingers 7.12502
lthumb 9.80886 43.1385
rfemur -6.53591 4.84114 32.6165
rtibia 30.0655
rfoot -18.4988 -9.76057
rtoes 9.48313
lfemur -15.4308 3.4003 -11.3957
ltibia 67.2719
lfoot -6.33018 3.56006
ltoes -12.4835
842
root -34.2672 16.9649 -7.86324 450.696 -84.7568 -455.509
lowerback 0.589997 -0.763562 6.00122
upperback 1.67379 -1.07567 0.982121
thorax 1.30442 -0.481746 -2.35632
lowerneck -6.06407 -0.175613 2.51694
upperneck 4.61656 -0.538168 1.27271
head 2.50678 -0.186324 -0.0492517
rclavicle 1.79512e-014 1.00386e-014
rhumerus -32.2237 -4.3657 -86.2886
rradius 29.8518
rwrist -0.431572
rhand -19.5599 -7.95002
rfingers 7.12502
rthumb 6.76467 -37.822
lclavicle 1.79512e-014 1.00386e-014
lhumerus -34.9871 6.06295 83.9807
lradius 28.2279
lwrist 17.5648
lhand -16.4307 13.3911
lfingers 7.12502
lthumb 9.7846 43.1437
rfemur -6.16572 4.85627 32.8109
rtibia 30.2356
rfoot -18.8636 -9.76263
rtoes 9.26216
lfemur -16.6116 3.13202 -11.497
ltibia 67.0353
lfoot -7.32828 4.2289
ltoes -12.7074
843
root -34.3855 16.9495 -7.87117 451.465 -84.6758 -456.271
lowerback 0.656708 -0.720463 6.10001
upperback 1.67772 -1.01383 0.971581
thorax 1.2748 -0.450452 -2.42125
lowerneck -6.10329 -0.175715 2.45372
upperneck 4.74021 -0.542277 1.35552
head 2.55584 -0.185229 -0.0122827
rclavicle -3.94619e-015 -5.1684e-015
rhumerus -32.0477 -4.06535 -86.4466
rradius 30.2387
rwrist -0.73137
rhand -19.5696 -7.97811
rfingers 7.12502
rthumb 6.75533 -37.8503
lclavicle -3.94619e-015 -5.1684e-015
lhumerus -34.9821 5.85243 84.07
lradius 28.6316
lwrist 17.7387
lhand -16.4563 13.4419
lfingers 7.12502
lthumb 9.75997 43.1957
rfemur -5.79745 4.87771 33
rtibia 30.4027
rfoot -19.237 -9.78922
rtoes 9.01691
lfemur -17.7619 2.86874 -11.6005
ltibia 66.6928
lfoot -8.2476 4.84908
ltoes -12.9429
